<svg width="62" height="62" viewBox="0 0 62 62" fill="none" xmlns="http://www.w3.org/2000/svg">
<path d="M42.625 52.9583C35.5471 56.8367 29.7084 56.8333 21.9584 54.25C14.1097 51.6337 9.04175 42.625 9.04175 36.1667C9.04175 32.6226 14.355 30.5198 16.1828 29.9014C16.543 29.7794 16.7917 29.4457 16.7917 29.0655V19.3751C16.7917 16.8783 18.8158 14.8542 21.3126 14.8542C23.8093 14.8542 25.8334 16.8783 25.8334 19.3751V16.1459C25.8334 13.6491 27.8574 11.6251 30.3542 11.6251C32.851 11.6251 34.875 13.6491 34.875 16.1459V19.3751C34.875 16.8783 36.8991 14.8542 39.3959 14.8542C41.8927 14.8542 43.9167 16.8783 43.9167 19.3751V9.68756C43.9167 7.19079 45.9407 5.16675 48.4375 5.16675C50.9343 5.16675 52.9583 7.19079 52.9583 9.68756V36.4662C52.9583 39.6595 52.1933 42.8321 50.3259 45.4224C48.4271 48.0563 45.67 51.2899 42.625 52.9583Z" stroke="#2B3B74" stroke-width="5.16666" stroke-linecap="round" stroke-linejoin="round"/>
</svg>
