<svg width="36" height="36" viewBox="0 0 36 36" fill="none" xmlns="http://www.w3.org/2000/svg">
<path d="M25.5 4.5H10.5C7.18629 4.5 4.5 7.18629 4.5 10.5V25.5C4.5 28.8137 7.18629 31.5 10.5 31.5H25.5C28.8137 31.5 31.5 28.8137 31.5 25.5V10.5C31.5 7.18629 28.8137 4.5 25.5 4.5Z" fill="#FEFEFE" stroke="#011458" stroke-width="2" stroke-linejoin="round"/>
<path d="M18 24C21.3137 24 24 21.3137 24 18C24 14.6863 21.3137 12 18 12C14.6863 12 12 14.6863 12 18C12 21.3137 14.6863 24 18 24Z" fill="#FEFEFE" stroke="#011458" stroke-width="2" stroke-linejoin="round"/>
<path d="M26.25 11.25C27.0784 11.25 27.75 10.5784 27.75 9.75C27.75 8.92155 27.0784 8.25 26.25 8.25C25.4216 8.25 24.75 8.92155 24.75 9.75C24.75 10.5784 25.4216 11.25 26.25 11.25Z" fill="#011458"/>
</svg>
