<svg width="205" height="51" viewBox="0 0 205 51" fill="none" xmlns="http://www.w3.org/2000/svg">
<path d="M2.95801 11.2532C9.50196 19.7628 16.5702 19.5724 26.3631 10.3049C32.6345 18.9758 39.2328 18.2466 50.4386 9.32941C56.7676 17.0449 60.9101 16.5419 72.9311 8.7763" stroke="white" stroke-width="4" stroke-linecap="round"/>
<path d="M24.933 7.11754C25.013 5.94806 26.0263 5.05994 27.1961 5.13387C28.366 5.20781 29.2496 6.2158 29.1695 7.38529L26.2723 49.7336L22.0358 49.4658L24.933 7.11754Z" fill="white"/>
<path d="M48.933 2.11754C49.013 0.948056 50.0263 0.0599369 51.1961 0.133873C52.366 0.207809 53.2496 1.2158 53.1695 2.38529L50.2723 44.7336L46.0358 44.4658L48.933 2.11754Z" fill="white"/>
<path d="M8.30981 48.1722L74.1298 8.77588" stroke="white" stroke-width="4" stroke-linecap="round"/>
<mask id="path-5-outside-1_144_785" maskUnits="userSpaceOnUse" x="84.1299" y="13.8667" width="120" height="21" fill="black">
<rect fill="white" x="84.1299" y="13.8667" width="120" height="21"/>
<path d="M85.7619 32.8667V16.0667H92.5059C94.2499 16.0667 95.5779 16.4747 96.4899 17.2907C97.4179 18.0907 97.8819 19.1227 97.8819 20.3867C97.8819 21.4427 97.5939 22.2907 97.0179 22.9307C96.4579 23.5547 95.7699 23.9787 94.9539 24.2027C95.9139 24.3947 96.7059 24.8747 97.3299 25.6427C97.9539 26.3947 98.2659 27.2747 98.2659 28.2827C98.2659 29.6107 97.7859 30.7067 96.8259 31.5707C95.8659 32.4347 94.5059 32.8667 92.7459 32.8667H85.7619ZM88.8339 23.1227H92.0499C92.9139 23.1227 93.5779 22.9227 94.0419 22.5227C94.5059 22.1227 94.7379 21.5547 94.7379 20.8187C94.7379 20.1147 94.5059 19.5627 94.0419 19.1627C93.5939 18.7467 92.9139 18.5387 92.0019 18.5387H88.8339V23.1227ZM88.8339 30.3707H92.2659C93.1779 30.3707 93.8819 30.1627 94.3779 29.7467C94.8899 29.3147 95.1459 28.7147 95.1459 27.9467C95.1459 27.1627 94.8819 26.5467 94.3539 26.0987C93.8259 25.6507 93.1139 25.4267 92.2179 25.4267H88.8339V30.3707ZM107.623 32.8667V16.0667H113.791C115.135 16.0667 116.239 16.2987 117.103 16.7627C117.983 17.2107 118.639 17.8267 119.071 18.6107C119.503 19.3787 119.719 20.2347 119.719 21.1787C119.719 22.2027 119.447 23.1387 118.903 23.9867C118.375 24.8347 117.543 25.4507 116.407 25.8347L119.887 32.8667H116.359L113.239 26.2427H110.695V32.8667H107.623ZM110.695 23.9867H113.599C114.623 23.9867 115.375 23.7387 115.855 23.2427C116.335 22.7467 116.575 22.0907 116.575 21.2747C116.575 20.4747 116.335 19.8347 115.855 19.3547C115.391 18.8747 114.631 18.6347 113.575 18.6347H110.695V23.9867ZM129.296 32.8667V16.0667H132.368V32.8667H129.296ZM142.344 32.8667V16.0667H148.08C150.048 16.0667 151.664 16.4187 152.928 17.1227C154.208 17.8107 155.152 18.7867 155.76 20.0507C156.384 21.2987 156.696 22.7707 156.696 24.4667C156.696 26.1627 156.384 27.6427 155.76 28.9067C155.152 30.1547 154.208 31.1307 152.928 31.8347C151.664 32.5227 150.048 32.8667 148.08 32.8667H142.344ZM145.416 30.2267H147.936C149.344 30.2267 150.456 30.0027 151.272 29.5547C152.088 29.0907 152.672 28.4347 153.024 27.5867C153.376 26.7227 153.552 25.6827 153.552 24.4667C153.552 23.2667 153.376 22.2347 153.024 21.3707C152.672 20.5067 152.088 19.8427 151.272 19.3787C150.456 18.9147 149.344 18.6827 147.936 18.6827H145.416V30.2267ZM173.47 33.1547C171.886 33.1547 170.502 32.7947 169.318 32.0747C168.134 31.3547 167.214 30.3547 166.558 29.0747C165.902 27.7787 165.574 26.2747 165.574 24.5627C165.574 22.8347 165.91 21.3147 166.582 20.0027C167.27 18.6747 168.238 17.6427 169.486 16.9067C170.75 16.1547 172.246 15.7787 173.974 15.7787C175.942 15.7787 177.574 16.2507 178.87 17.1947C180.166 18.1387 181.006 19.4427 181.39 21.1067H177.958C177.702 20.3227 177.238 19.7147 176.566 19.2827C175.894 18.8347 175.03 18.6107 173.974 18.6107C172.294 18.6107 170.998 19.1467 170.086 20.2187C169.174 21.2747 168.718 22.7307 168.718 24.5867C168.718 26.4427 169.166 27.8827 170.062 28.9067C170.974 29.9147 172.206 30.4187 173.758 30.4187C175.278 30.4187 176.422 30.0107 177.19 29.1947C177.974 28.3627 178.446 27.2747 178.606 25.9307H174.358V23.6267H181.702V32.8667H178.87L178.63 30.6587C178.086 31.4587 177.406 32.0747 176.59 32.5067C175.774 32.9387 174.734 33.1547 173.47 33.1547ZM191.409 32.8667V16.0667H202.377V18.5387H194.481V23.1467H201.657V25.5467H194.481V30.3947H202.377V32.8667H191.409Z"/>
</mask>
<path d="M85.7619 32.8667V16.0667H92.5059C94.2499 16.0667 95.5779 16.4747 96.4899 17.2907C97.4179 18.0907 97.8819 19.1227 97.8819 20.3867C97.8819 21.4427 97.5939 22.2907 97.0179 22.9307C96.4579 23.5547 95.7699 23.9787 94.9539 24.2027C95.9139 24.3947 96.7059 24.8747 97.3299 25.6427C97.9539 26.3947 98.2659 27.2747 98.2659 28.2827C98.2659 29.6107 97.7859 30.7067 96.8259 31.5707C95.8659 32.4347 94.5059 32.8667 92.7459 32.8667H85.7619ZM88.8339 23.1227H92.0499C92.9139 23.1227 93.5779 22.9227 94.0419 22.5227C94.5059 22.1227 94.7379 21.5547 94.7379 20.8187C94.7379 20.1147 94.5059 19.5627 94.0419 19.1627C93.5939 18.7467 92.9139 18.5387 92.0019 18.5387H88.8339V23.1227ZM88.8339 30.3707H92.2659C93.1779 30.3707 93.8819 30.1627 94.3779 29.7467C94.8899 29.3147 95.1459 28.7147 95.1459 27.9467C95.1459 27.1627 94.8819 26.5467 94.3539 26.0987C93.8259 25.6507 93.1139 25.4267 92.2179 25.4267H88.8339V30.3707ZM107.623 32.8667V16.0667H113.791C115.135 16.0667 116.239 16.2987 117.103 16.7627C117.983 17.2107 118.639 17.8267 119.071 18.6107C119.503 19.3787 119.719 20.2347 119.719 21.1787C119.719 22.2027 119.447 23.1387 118.903 23.9867C118.375 24.8347 117.543 25.4507 116.407 25.8347L119.887 32.8667H116.359L113.239 26.2427H110.695V32.8667H107.623ZM110.695 23.9867H113.599C114.623 23.9867 115.375 23.7387 115.855 23.2427C116.335 22.7467 116.575 22.0907 116.575 21.2747C116.575 20.4747 116.335 19.8347 115.855 19.3547C115.391 18.8747 114.631 18.6347 113.575 18.6347H110.695V23.9867ZM129.296 32.8667V16.0667H132.368V32.8667H129.296ZM142.344 32.8667V16.0667H148.08C150.048 16.0667 151.664 16.4187 152.928 17.1227C154.208 17.8107 155.152 18.7867 155.76 20.0507C156.384 21.2987 156.696 22.7707 156.696 24.4667C156.696 26.1627 156.384 27.6427 155.76 28.9067C155.152 30.1547 154.208 31.1307 152.928 31.8347C151.664 32.5227 150.048 32.8667 148.08 32.8667H142.344ZM145.416 30.2267H147.936C149.344 30.2267 150.456 30.0027 151.272 29.5547C152.088 29.0907 152.672 28.4347 153.024 27.5867C153.376 26.7227 153.552 25.6827 153.552 24.4667C153.552 23.2667 153.376 22.2347 153.024 21.3707C152.672 20.5067 152.088 19.8427 151.272 19.3787C150.456 18.9147 149.344 18.6827 147.936 18.6827H145.416V30.2267ZM173.47 33.1547C171.886 33.1547 170.502 32.7947 169.318 32.0747C168.134 31.3547 167.214 30.3547 166.558 29.0747C165.902 27.7787 165.574 26.2747 165.574 24.5627C165.574 22.8347 165.91 21.3147 166.582 20.0027C167.27 18.6747 168.238 17.6427 169.486 16.9067C170.75 16.1547 172.246 15.7787 173.974 15.7787C175.942 15.7787 177.574 16.2507 178.87 17.1947C180.166 18.1387 181.006 19.4427 181.39 21.1067H177.958C177.702 20.3227 177.238 19.7147 176.566 19.2827C175.894 18.8347 175.03 18.6107 173.974 18.6107C172.294 18.6107 170.998 19.1467 170.086 20.2187C169.174 21.2747 168.718 22.7307 168.718 24.5867C168.718 26.4427 169.166 27.8827 170.062 28.9067C170.974 29.9147 172.206 30.4187 173.758 30.4187C175.278 30.4187 176.422 30.0107 177.19 29.1947C177.974 28.3627 178.446 27.2747 178.606 25.9307H174.358V23.6267H181.702V32.8667H178.87L178.63 30.6587C178.086 31.4587 177.406 32.0747 176.59 32.5067C175.774 32.9387 174.734 33.1547 173.47 33.1547ZM191.409 32.8667V16.0667H202.377V18.5387H194.481V23.1467H201.657V25.5467H194.481V30.3947H202.377V32.8667H191.409Z" fill="white"/>
<path d="M85.7619 32.8667H84.7619V33.8667H85.7619V32.8667ZM85.7619 16.0667V15.0667H84.7619V16.0667H85.7619ZM96.4899 17.2907L95.8231 18.0359L95.83 18.0421L95.8369 18.0481L96.4899 17.2907ZM97.0179 22.9307L96.2746 22.2617L96.2736 22.2628L97.0179 22.9307ZM94.9539 24.2027L94.6892 23.2384L94.7578 25.1833L94.9539 24.2027ZM97.3299 25.6427L96.5537 26.2733L96.5603 26.2813L97.3299 25.6427ZM96.8259 31.5707L97.4948 32.314L96.8259 31.5707ZM88.8339 23.1227H87.8339V24.1227H88.8339V23.1227ZM94.0419 19.1627L93.3614 19.8955L93.375 19.9081L93.3889 19.9201L94.0419 19.1627ZM88.8339 18.5387V17.5387H87.8339V18.5387H88.8339ZM88.8339 30.3707H87.8339V31.3707H88.8339V30.3707ZM94.3779 29.7467L95.0205 30.5129L95.0228 30.511L94.3779 29.7467ZM94.3539 26.0987L95.0009 25.3362L95.0009 25.3362L94.3539 26.0987ZM88.8339 25.4267V24.4267H87.8339V25.4267H88.8339ZM86.7619 32.8667V16.0667H84.7619V32.8667H86.7619ZM85.7619 17.0667H92.5059V15.0667H85.7619V17.0667ZM92.5059 17.0667C94.1076 17.0667 95.1593 17.442 95.8231 18.0359L97.1567 16.5455C95.9965 15.5074 94.3922 15.0667 92.5059 15.0667V17.0667ZM95.8369 18.0481C96.5367 18.6514 96.8819 19.4031 96.8819 20.3867H98.8819C98.8819 18.8423 98.299 17.53 97.1428 16.5333L95.8369 18.0481ZM96.8819 20.3867C96.8819 21.2542 96.65 21.8447 96.2746 22.2617L97.7612 23.5997C98.5378 22.7367 98.8819 21.6312 98.8819 20.3867H96.8819ZM96.2736 22.2628C95.843 22.7426 95.322 23.0646 94.6892 23.2384L95.2186 25.167C96.2177 24.8927 97.0728 24.3668 97.7621 23.5986L96.2736 22.2628ZM94.7578 25.1833C95.4869 25.3291 96.0748 25.6838 96.5538 26.2733L98.106 25.0121C97.337 24.0656 96.3408 23.4603 95.15 23.2221L94.7578 25.1833ZM96.5603 26.2813C97.0304 26.8477 97.2659 27.4999 97.2659 28.2827H99.2659C99.2659 27.0495 98.8774 25.9417 98.0994 25.0041L96.5603 26.2813ZM97.2659 28.2827C97.2659 29.3363 96.8995 30.1591 96.1569 30.8274L97.4948 32.314C98.6722 31.2543 99.2659 29.8851 99.2659 28.2827H97.2659ZM96.1569 30.8274C95.4382 31.4743 94.3493 31.8667 92.7459 31.8667V33.8667C94.6625 33.8667 96.2936 33.3951 97.4948 32.314L96.1569 30.8274ZM92.7459 31.8667H85.7619V33.8667H92.7459V31.8667ZM88.8339 24.1227H92.0499V22.1227H88.8339V24.1227ZM92.0499 24.1227C93.0561 24.1227 93.9871 23.8903 94.6948 23.2801L93.3889 21.7653C93.1687 21.9551 92.7716 22.1227 92.0499 22.1227V24.1227ZM94.6948 23.2801C95.4236 22.6519 95.7379 21.7814 95.7379 20.8187H93.7379C93.7379 21.328 93.5882 21.5935 93.3889 21.7653L94.6948 23.2801ZM95.7379 20.8187C95.7379 19.872 95.4133 19.0246 94.6948 18.4053L93.3889 19.9201C93.5985 20.1008 93.7379 20.3574 93.7379 20.8187H95.7379ZM94.7223 18.4299C94.0163 17.7743 93.0447 17.5387 92.0019 17.5387V19.5387C92.7831 19.5387 93.1715 19.7191 93.3614 19.8955L94.7223 18.4299ZM92.0019 17.5387H88.8339V19.5387H92.0019V17.5387ZM87.8339 18.5387V23.1227H89.8339V18.5387H87.8339ZM88.8339 31.3707H92.2659V29.3707H88.8339V31.3707ZM92.2659 31.3707C93.318 31.3707 94.2831 31.1313 95.0205 30.5129L93.7353 28.9805C93.4807 29.194 93.0377 29.3707 92.2659 29.3707V31.3707ZM95.0228 30.511C95.7943 29.86 96.1459 28.9612 96.1459 27.9467H94.1459C94.1459 28.4682 93.9854 28.7694 93.733 28.9824L95.0228 30.511ZM96.1459 27.9467C96.1459 26.9125 95.7839 26.0006 95.0009 25.3362L93.7069 26.8612C93.9798 27.0928 94.1459 27.4129 94.1459 27.9467H96.1459ZM95.0009 25.3362C94.2445 24.6945 93.2799 24.4267 92.2179 24.4267V26.4267C92.9479 26.4267 93.4072 26.6069 93.7069 26.8612L95.0009 25.3362ZM92.2179 24.4267H88.8339V26.4267H92.2179V24.4267ZM87.8339 25.4267V30.3707H89.8339V25.4267H87.8339ZM107.623 32.8667H106.623V33.8667H107.623V32.8667ZM107.623 16.0667V15.0667H106.623V16.0667H107.623ZM117.103 16.7627L116.629 17.6437L116.639 17.6489L116.649 17.6539L117.103 16.7627ZM119.071 18.6107L118.195 19.0933L118.199 19.101L119.071 18.6107ZM118.903 23.9867L118.061 23.4467L118.054 23.4581L118.903 23.9867ZM116.407 25.8347L116.086 24.8874L115.003 25.2535L115.51 26.2782L116.407 25.8347ZM119.887 32.8667V33.8667H121.497L120.783 32.4232L119.887 32.8667ZM116.359 32.8667L115.454 33.2928L115.724 33.8667H116.359V32.8667ZM113.239 26.2427L114.143 25.8166L113.873 25.2427H113.239V26.2427ZM110.695 26.2427V25.2427H109.695V26.2427H110.695ZM110.695 32.8667V33.8667H111.695V32.8667H110.695ZM110.695 23.9867H109.695V24.9867H110.695V23.9867ZM115.855 23.2427L115.136 22.5473H115.136L115.855 23.2427ZM115.855 19.3547L115.136 20.0497L115.141 20.0558L115.147 20.0618L115.855 19.3547ZM110.695 18.6347V17.6347H109.695V18.6347H110.695ZM108.623 32.8667V16.0667H106.623V32.8667H108.623ZM107.623 17.0667H113.791V15.0667H107.623V17.0667ZM113.791 17.0667C115.028 17.0667 115.955 17.2814 116.629 17.6437L117.576 15.8817C116.522 15.316 115.241 15.0667 113.791 15.0667V17.0667ZM116.649 17.6539C117.37 18.0208 117.869 18.5026 118.195 19.0933L119.946 18.1281C119.408 17.1508 118.595 16.4006 117.556 15.8715L116.649 17.6539ZM118.199 19.101C118.541 19.7086 118.719 20.3938 118.719 21.1787H120.719C120.719 20.0756 120.464 19.0488 119.942 18.1204L118.199 19.101ZM118.719 21.1787C118.719 22.0146 118.5 22.7626 118.061 23.4467L119.744 24.5267C120.393 23.5148 120.719 22.3908 120.719 21.1787H118.719ZM118.054 23.4581C117.671 24.0721 117.049 24.5621 116.086 24.8874L116.727 26.782C118.036 26.3393 119.078 25.5973 119.751 24.5153L118.054 23.4581ZM115.51 26.2782L118.99 33.3102L120.783 32.4232L117.303 25.3912L115.51 26.2782ZM119.887 31.8667H116.359V33.8667H119.887V31.8667ZM117.263 32.4406L114.143 25.8166L112.334 26.6688L115.454 33.2928L117.263 32.4406ZM113.239 25.2427H110.695V27.2427H113.239V25.2427ZM109.695 26.2427V32.8667H111.695V26.2427H109.695ZM110.695 31.8667H107.623V33.8667H110.695V31.8667ZM110.695 24.9867H113.599V22.9867H110.695V24.9867ZM113.599 24.9867C114.763 24.9867 115.83 24.7061 116.573 23.9381L115.136 22.5473C114.919 22.7713 114.482 22.9867 113.599 22.9867V24.9867ZM116.573 23.9381C117.266 23.2222 117.575 22.2996 117.575 21.2747H115.575C115.575 21.8818 115.403 22.2712 115.136 22.5473L116.573 23.9381ZM117.575 21.2747C117.575 20.2604 117.262 19.3483 116.562 18.6476L115.147 20.0618C115.407 20.3211 115.575 20.689 115.575 21.2747H117.575ZM116.573 18.6597C115.836 17.8968 114.748 17.6347 113.575 17.6347V19.6347C114.513 19.6347 114.945 19.8526 115.136 20.0497L116.573 18.6597ZM113.575 17.6347H110.695V19.6347H113.575V17.6347ZM109.695 18.6347V23.9867H111.695V18.6347H109.695ZM129.296 32.8667H128.296V33.8667H129.296V32.8667ZM129.296 16.0667V15.0667H128.296V16.0667H129.296ZM132.368 16.0667H133.368V15.0667H132.368V16.0667ZM132.368 32.8667V33.8667H133.368V32.8667H132.368ZM130.296 32.8667V16.0667H128.296V32.8667H130.296ZM129.296 17.0667H132.368V15.0667H129.296V17.0667ZM131.368 16.0667V32.8667H133.368V16.0667H131.368ZM132.368 31.8667H129.296V33.8667H132.368V31.8667ZM142.344 32.8667H141.344V33.8667H142.344V32.8667ZM142.344 16.0667V15.0667H141.344V16.0667H142.344ZM152.928 17.1227L152.441 17.9963L152.448 18L152.454 18.0035L152.928 17.1227ZM155.76 20.0507L154.859 20.4842L154.862 20.4911L154.865 20.4979L155.76 20.0507ZM155.76 28.9067L154.863 28.464L154.861 28.4687L155.76 28.9067ZM152.928 31.8347L153.406 32.713L153.41 32.7109L152.928 31.8347ZM145.416 30.2267H144.416V31.2267H145.416V30.2267ZM151.272 29.5547L151.753 30.4313L151.76 30.4277L151.766 30.424L151.272 29.5547ZM153.024 27.5867L153.947 27.9701L153.95 27.964L153.024 27.5867ZM153.024 21.3707L152.098 21.748L153.024 21.3707ZM145.416 18.6827V17.6827H144.416V18.6827H145.416ZM143.344 32.8667V16.0667H141.344V32.8667H143.344ZM142.344 17.0667H148.08V15.0667H142.344V17.0667ZM148.08 17.0667C149.936 17.0667 151.37 17.3997 152.441 17.9963L153.414 16.2491C151.958 15.4377 150.159 15.0667 148.08 15.0667V17.0667ZM152.454 18.0035C153.555 18.5952 154.346 19.418 154.859 20.4842L156.661 19.6172C155.958 18.1554 154.86 17.0261 153.401 16.2419L152.454 18.0035ZM154.865 20.4979C155.407 21.5803 155.696 22.893 155.696 24.4667H157.696C157.696 22.6484 157.361 21.0171 156.654 19.6035L154.865 20.4979ZM155.696 24.4667C155.696 26.04 155.407 27.3629 154.863 28.464L156.656 29.3494C157.361 27.9225 157.696 26.2854 157.696 24.4667H155.696ZM154.861 28.4687C154.348 29.521 153.555 30.3485 152.446 30.9585L153.41 32.7109C154.861 31.9129 155.955 30.7883 156.659 29.3447L154.861 28.4687ZM152.45 30.9564C151.376 31.5406 149.939 31.8667 148.08 31.8667V33.8667C150.156 33.8667 151.951 33.5048 153.406 32.713L152.45 30.9564ZM148.08 31.8667H142.344V33.8667H148.08V31.8667ZM145.416 31.2267H147.936V29.2267H145.416V31.2267ZM147.936 31.2267C149.433 31.2267 150.733 30.9913 151.753 30.4313L150.79 28.6781C150.179 29.0141 149.255 29.2267 147.936 29.2267V31.2267ZM151.766 30.424C152.77 29.8528 153.508 29.0281 153.947 27.9701L152.1 27.2033C151.835 27.8413 151.405 28.3286 150.777 28.6854L151.766 30.424ZM153.95 27.964C154.363 26.9499 154.552 25.7747 154.552 24.4667H152.552C152.552 25.5907 152.389 26.4955 152.098 27.2094L153.95 27.964ZM154.552 24.4667C154.552 23.1727 154.362 22.0061 153.95 20.9934L152.098 21.748C152.389 22.4633 152.552 23.3607 152.552 24.4667H154.552ZM153.95 20.9934C153.513 19.9202 152.776 19.0836 151.766 18.5094L150.777 20.248C151.4 20.6018 151.831 21.0932 152.098 21.748L153.95 20.9934ZM151.766 18.5094C150.742 17.9273 149.437 17.6827 147.936 17.6827V19.6827C149.251 19.6827 150.169 19.9021 150.777 20.248L151.766 18.5094ZM147.936 17.6827H145.416V19.6827H147.936V17.6827ZM144.416 18.6827V30.2267H146.416V18.6827H144.416ZM169.318 32.0747L168.799 32.9291L169.318 32.0747ZM166.558 29.0747L165.666 29.5263L165.668 29.5308L166.558 29.0747ZM166.582 20.0027L165.694 19.5427L165.692 19.5468L166.582 20.0027ZM169.486 16.9067L169.994 17.7681L169.998 17.7661L169.486 16.9067ZM178.87 17.1947L179.459 16.3864V16.3864L178.87 17.1947ZM181.39 21.1067V22.1067H182.647L182.365 20.8818L181.39 21.1067ZM177.958 21.1067L177.008 21.4171L177.233 22.1067H177.958V21.1067ZM176.566 19.2827L176.012 20.1147L176.018 20.1194L176.025 20.1239L176.566 19.2827ZM170.086 20.2187L170.843 20.8723L170.848 20.8667L170.086 20.2187ZM170.062 28.9067L169.31 29.5652L169.315 29.5715L169.321 29.5776L170.062 28.9067ZM177.19 29.1947L176.462 28.5089L176.462 28.5093L177.19 29.1947ZM178.606 25.9307L179.599 26.0489L179.732 24.9307H178.606V25.9307ZM174.358 25.9307H173.358V26.9307H174.358V25.9307ZM174.358 23.6267V22.6267H173.358V23.6267H174.358ZM181.702 23.6267H182.702V22.6267H181.702V23.6267ZM181.702 32.8667V33.8667H182.702V32.8667H181.702ZM178.87 32.8667L177.876 32.9748L177.973 33.8667H178.87V32.8667ZM178.63 30.6587L179.624 30.5506L179.331 27.85L177.803 30.0964L178.63 30.6587ZM176.59 32.5067L177.058 33.3905L176.59 32.5067ZM173.47 32.1547C172.043 32.1547 170.844 31.8321 169.838 31.2203L168.799 32.9291C170.161 33.7573 171.73 34.1547 173.47 34.1547V32.1547ZM169.838 31.2203C168.818 30.6 168.023 29.7407 167.448 28.6186L165.668 29.5308C166.405 30.9687 167.451 32.1094 168.799 32.9291L169.838 31.2203ZM167.45 28.6231C166.877 27.49 166.574 26.1457 166.574 24.5627H164.574C164.574 26.4037 164.928 28.0674 165.666 29.5263L167.45 28.6231ZM166.574 24.5627C166.574 22.966 166.884 21.6071 167.472 20.4586L165.692 19.5468C164.936 21.0223 164.574 22.7034 164.574 24.5627H166.574ZM167.47 20.4627C168.075 19.2959 168.913 18.4054 169.994 17.7681L168.978 16.0453C167.563 16.88 166.466 18.0535 165.694 19.5427L167.47 20.4627ZM169.998 17.7661C171.082 17.1211 172.394 16.7787 173.974 16.7787V14.7787C172.098 14.7787 170.419 15.1883 168.975 16.0473L169.998 17.7661ZM173.974 16.7787C175.78 16.7787 177.192 17.2096 178.281 18.003L179.459 16.3864C177.956 15.2918 176.105 14.7787 173.974 14.7787V16.7787ZM178.281 18.003C179.37 18.7956 180.082 19.8855 180.416 21.3316L182.365 20.8818C181.93 18.9999 180.963 17.4818 179.459 16.3864L178.281 18.003ZM181.39 20.1067H177.958V22.1067H181.39V20.1067ZM178.909 20.7963C178.584 19.8012 177.979 19.0023 177.107 18.4415L176.025 20.1239C176.497 20.4271 176.821 20.8442 177.008 21.4171L178.909 20.7963ZM177.121 18.4506C176.241 17.8641 175.168 17.6107 173.974 17.6107V19.6107C174.893 19.6107 175.547 19.8053 176.012 20.1147L177.121 18.4506ZM173.974 17.6107C172.064 17.6107 170.464 18.2318 169.325 19.5707L170.848 20.8667C171.533 20.0616 172.525 19.6107 173.974 19.6107V17.6107ZM169.329 19.5651C168.215 20.8554 167.718 22.5709 167.718 24.5867H169.718C169.718 22.8905 170.133 21.694 170.843 20.8723L169.329 19.5651ZM167.718 24.5867C167.718 26.5963 168.204 28.3018 169.31 29.5652L170.815 28.2482C170.128 27.4636 169.718 26.2891 169.718 24.5867H167.718ZM169.321 29.5776C170.45 30.8259 171.968 31.4187 173.758 31.4187V29.4187C172.445 29.4187 171.498 29.0035 170.804 28.2358L169.321 29.5776ZM173.758 31.4187C175.452 31.4187 176.901 30.9606 177.918 29.8801L176.462 28.5093C175.943 29.0608 175.104 29.4187 173.758 29.4187V31.4187ZM177.918 29.8805C178.875 28.8654 179.419 27.5653 179.599 26.0489L177.613 25.8125C177.474 26.9841 177.074 27.86 176.462 28.5089L177.918 29.8805ZM178.606 24.9307H174.358V26.9307H178.606V24.9307ZM175.358 25.9307V23.6267H173.358V25.9307H175.358ZM174.358 24.6267H181.702V22.6267H174.358V24.6267ZM180.702 23.6267V32.8667H182.702V23.6267H180.702ZM181.702 31.8667H178.87V33.8667H181.702V31.8667ZM179.864 32.7586L179.624 30.5506L177.636 30.7668L177.876 32.9748L179.864 32.7586ZM177.803 30.0964C177.346 30.7682 176.787 31.2709 176.122 31.6229L177.058 33.3905C178.025 32.8785 178.826 32.1492 179.457 31.221L177.803 30.0964ZM176.122 31.6229C175.494 31.9557 174.628 32.1547 173.47 32.1547V34.1547C174.84 34.1547 176.055 33.9217 177.058 33.3905L176.122 31.6229ZM191.409 32.8667H190.409V33.8667H191.409V32.8667ZM191.409 16.0667V15.0667H190.409V16.0667H191.409ZM202.377 16.0667H203.377V15.0667H202.377V16.0667ZM202.377 18.5387V19.5387H203.377V18.5387H202.377ZM194.481 18.5387V17.5387H193.481V18.5387H194.481ZM194.481 23.1467H193.481V24.1467H194.481V23.1467ZM201.657 23.1467H202.657V22.1467H201.657V23.1467ZM201.657 25.5467V26.5467H202.657V25.5467H201.657ZM194.481 25.5467V24.5467H193.481V25.5467H194.481ZM194.481 30.3947H193.481V31.3947H194.481V30.3947ZM202.377 30.3947H203.377V29.3947H202.377V30.3947ZM202.377 32.8667V33.8667H203.377V32.8667H202.377ZM192.409 32.8667V16.0667H190.409V32.8667H192.409ZM191.409 17.0667H202.377V15.0667H191.409V17.0667ZM201.377 16.0667V18.5387H203.377V16.0667H201.377ZM202.377 17.5387H194.481V19.5387H202.377V17.5387ZM193.481 18.5387V23.1467H195.481V18.5387H193.481ZM194.481 24.1467H201.657V22.1467H194.481V24.1467ZM200.657 23.1467V25.5467H202.657V23.1467H200.657ZM201.657 24.5467H194.481V26.5467H201.657V24.5467ZM193.481 25.5467V30.3947H195.481V25.5467H193.481ZM194.481 31.3947H202.377V29.3947H194.481V31.3947ZM201.377 30.3947V32.8667H203.377V30.3947H201.377ZM202.377 31.8667H191.409V33.8667H202.377V31.8667Z" fill="white" mask="url(#path-5-outside-1_144_785)"/>
</svg>
