<svg width="46" height="51" viewBox="0 0 46 51" fill="none" xmlns="http://www.w3.org/2000/svg">
<path d="M0 5C0 2.23858 2.23858 0 5 0H36.6604C39.4218 0 41.6604 2.23858 41.6604 5V32.4274C41.6604 35.1888 39.4218 37.4274 36.6604 37.4274H15.1509C13.4941 37.4274 12.1509 38.7706 12.1509 40.4274V46C12.1509 48.7614 9.91237 51 7.15094 51H5C2.23858 51 0 48.7614 0 46V5Z" fill="#013668"/>
<path d="M14.0178 39.4834H45.9999V45.9995C45.9999 48.761 43.7717 50.9995 41.0103 50.9995C32.5695 50.9995 16.0804 50.9995 12.9339 50.9995C8.66734 50.9995 14.018 50.9995 14.0177 48.9431C14.0175 46.8866 14.0178 39.4834 14.0178 39.4834Z" fill="#013668"/>
<rect x="6.07544" y="7.40332" width="18.2264" height="2.46774" rx="1.23387" fill="#FFFBF1"/>
<rect x="6.07544" y="12.3389" width="11.283" height="2.46774" rx="1.23387" fill="#FFFBF1"/>
<rect x="27.7737" y="7.40332" width="6.9434" height="2.46774" rx="1.23387" fill="#FFFBF1"/>
<rect x="27.7737" y="16.4512" width="6.9434" height="2.46774" rx="1.23387" fill="#FFFBF1"/>
<rect x="6.07544" y="22.21" width="11.283" height="2.46774" rx="1.23387" fill="#FFFBF1"/>
<rect x="6.07544" y="17.2744" width="18.2264" height="2.46774" rx="1.23387" fill="#FFFBF1"/>
</svg>
